<svg viewBox="0 0 384 512" xml:space="preserve" xmlns="http://www.w3.org/2000/svg"><!--!Font Awesome Free 6.5.2 by @fontawesome - https://fontawesome.com License - https://fontawesome.com/license/free Copyright 2024 Fonticons, Inc.--><!-- Edited by Constantin Müller under the terms of CC BY 4.0 Deed--><path d="M320 464c8.8 0 16-7.2 16-16V160h-80c-17.7 0-32-14.3-32-32V48H64c-8.8 0-16 7.2-16 16v384c0 8.8 7.2 16 16 16h256zM0 64C0 28.7 28.7 0 64 0h165.5c17 0 33.3 6.7 45.3 18.7l90.5 90.5c12 12 18.7 28.3 18.7 45.3V448c0 35.3-28.7 64-64 64H64c-35.3 0-64-28.7-64-64V64z" style="fill:#737373;fill-opacity:1"/><g style="font-size:207.94px;font-family:Tahoma;-inkscape-font-specification:Tahoma;fill:#16a34a;stroke-width:17.3285" aria-label="QD"><path style="font-weight:700;font-family:'Noto Sans Mono';-inkscape-font-specification:'Noto Sans Mono Bold'" d="m158.208 415-21.626-43.044 22.874-13.724L190.23 415zm-20.17-35.35q-14.556 0-25.16-5.198-10.606-5.199-17.468-14.972-6.862-9.981-10.189-24.121-3.327-14.14-3.327-32.23 0-24.122 6.03-41.173 6.03-17.259 18.3-26.2 12.476-9.15 31.814-9.15 14.556 0 25.16 5.199 10.606 5.198 17.468 15.18 6.862 9.773 10.189 24.12 3.327 14.14 3.327 32.023 0 18.091-3.327 32.231t-10.19 24.121q-6.861 9.773-17.466 14.972-10.605 5.198-25.16 5.198zm0-25.992q8.941 0 14.556-5.615 5.614-5.822 8.317-17.05 2.704-11.23 2.704-28.073 0-24.744-6.03-37.429-6.03-12.892-19.547-12.892-8.941 0-14.764 5.822-5.614 5.615-8.317 16.843-2.496 11.23-2.496 27.864 0 16.636 2.496 27.864 2.703 11.23 8.317 17.051 5.823 5.615 14.764 5.615z" transform="scale(.9658 1.03542)"/><path style="font-weight:700;font-family:'Noto Sans Mono';-inkscape-font-specification:'Noto Sans Mono Bold';fill:#737373" d="M209.777 377.57V229.103h45.955q19.339 0 33.479 8.317 14.14 8.11 21.833 24.33 7.902 16.219 7.902 40.34 0 24.329-8.11 41.172-7.901 16.843-22.665 25.576-14.556 8.734-34.726 8.734zm42.004-25.576q18.923 0 27.656-12.268 8.942-12.269 8.942-37.43 0-16.635-3.951-27.032-3.743-10.605-11.229-15.595-7.486-4.99-18.922-4.99h-14.764v97.315z" transform="scale(.9658 1.03542)"/></g><path style="fill:#fff;fill-opacity:1;stroke-width:.864865" d="M57.514 461.941c-4.115-1.89-5.96-3.818-7.751-8.107-1.184-2.833-1.33-24.623-1.33-197.834 0-173.21.146-195 1.33-197.834 1.792-4.289 3.636-6.217 7.75-8.107 3.279-1.505 7.728-1.59 84.944-1.608l81.483-.019.246 44.325.246 44.324 2.35 4.786c3.001 6.109 9.242 12.35 15.351 15.35l4.786 2.35 44.324.247 44.325.246-.02 145.483c-.018 139.32-.086 145.63-1.607 148.943-1.89 4.115-3.818 5.96-8.107 7.751-2.818 1.178-18.208 1.328-134.022 1.312-125.11-.019-130.99-.089-134.298-1.608zm115.78-53.959-10.918-21.855 6.035-6.037c13.11-13.113 19.26-34.232 19.26-66.144 0-15.569-1.08-25.702-3.962-37.19-5.59-22.279-18.557-36.755-36.771-41.048-6.937-1.635-19.33-1.675-26.827-.086-28.21 5.98-42.964 36.402-41.13 84.81.813 21.47 3.68 34.59 10.392 47.568 8.154 15.765 23.95 25.435 41.654 25.5l4.324.015 5.134 11.026c2.824 6.065 6.638 14.237 8.474 18.162l3.34 7.135h31.913zm87.03-18.288c17.018-3.616 30.826-14.757 38.991-31.46 10.739-21.968 12.188-58.183 3.31-82.72-5.42-14.98-14.997-26.143-27.866-32.486-11.09-5.466-15.31-6.023-45.786-6.04l-26.595-.015v153.946l26.163-.015c18.914-.011 27.72-.346 31.783-1.21z"/><path style="fill:#fff;fill-opacity:1;stroke-width:.864865" d="M127.036 364.645c-5.58-1.995-8.372-4.692-11.56-11.17-4.74-9.631-5.89-17.08-5.979-38.664-.1-24.837 1.934-35.677 8.405-44.77 7.511-10.552 23.28-10.524 30.943.056 6.214 8.577 9.068 25.59 8.28 49.358-.674 20.374-2.774 29.835-8.499 38.297-4.51 6.665-13.867 9.652-21.59 6.893zM231.784 313.82v-50.288l10.594.495c13.724.642 17.77 2.045 24.057 8.341 8.066 8.08 11.306 19.86 11.28 41.018-.026 20.038-3.558 33.102-11.19 41.381-6.194 6.72-13.91 9.341-27.508 9.341h-7.233z"/></svg>